<svg width="45" height="45" viewBox="0 0 45 45" fill="none" xmlns="http://www.w3.org/2000/svg">
<g clip-path="url(#clip0_5063_36266)">
<path d="M27.0922 6.11816C25.162 4.76657 22.5015 5.23569 21.1499 7.16595L19.9263 8.91347C18.5747 10.8437 19.0438 13.5042 20.9741 14.8558C22.9043 16.2074 25.5648 15.7383 26.9164 13.808L28.14 12.0605C29.4916 10.1302 29.0225 7.46974 27.0922 6.11816Z" fill="white"/>
<path d="M35.8295 12.2363C33.8993 10.8847 31.2388 11.3539 29.8872 13.2841L28.6636 15.0316C27.312 16.9619 27.7811 19.6224 29.7114 20.9739C31.6417 22.3256 34.3021 21.8564 35.6537 19.9262L36.8773 18.1786C38.2289 16.2484 37.7598 13.5879 35.8295 12.2363Z" fill="white"/>
<path d="M15.7314 11.1846C13.8011 9.83298 11.1407 10.3021 9.78907 12.2324L9.17725 13.1061C7.82567 15.0364 8.29478 17.6968 10.225 19.0484C12.1553 20.4 14.8158 19.9309 16.1674 18.0006L16.7792 17.1269C18.1308 15.1966 17.6616 12.5361 15.7314 11.1846Z" fill="white"/>
<path d="M34.954 24.6445C33.0237 23.2929 30.3633 23.7621 29.0117 25.6923L28.3999 26.5661C27.0483 28.4963 27.5174 31.1568 29.4477 32.5084C31.378 33.86 34.0384 33.3909 35.39 31.4606L36.0018 30.5868C37.3534 28.6566 36.8843 25.9961 34.954 24.6445Z" fill="white"/>
<path d="M25.6345 25.3561C25.348 21.6933 21.7903 19.2022 18.2504 20.1857L8.816 22.8069C4.90999 23.8922 4.0279 29.033 7.34872 31.3582C7.82321 31.6905 8.36851 31.9077 8.94144 31.9927L9.79011 32.1184C12.9879 32.5926 15.7757 34.5447 17.315 37.3874L17.7234 38.1419C17.9992 38.6512 18.3898 39.0893 18.8643 39.4215C22.1851 41.7468 26.7142 39.1597 26.3981 35.1181L25.6345 25.3561Z" fill="white"/>
</g>
<defs>
<clipPath id="clip0_5063_36266">
<rect width="32" height="32" fill="white" transform="translate(18.3545) rotate(35)"/>
</clipPath>
</defs>
</svg>
