<svg width="393" height="323" viewBox="0 0 393 323" fill="none" xmlns="http://www.w3.org/2000/svg">
<path d="M141.653 260.35H134.103L125.253 287.75L116.603 260.35H108.153L99.5529 287.75L90.7029 260.35H83.1029V265.2L93.0529 296H105.153L112.403 272.35L119.653 296H131.753L141.653 265.2V260.35ZM170.98 283.2C170.98 275 165.13 269.35 156.68 269.35C148.18 269.35 142.38 275 142.38 283.2C142.38 291.35 148.18 297 156.68 297C165.13 297 170.98 291.35 170.98 283.2ZM163.03 283.2C163.03 287.2 160.38 290 156.68 290C152.93 290 150.33 287.2 150.33 283.2C150.33 279.15 152.93 276.35 156.68 276.35C160.38 276.35 163.03 279.15 163.03 283.2ZM203.304 283.2C203.304 275 197.454 269.35 189.004 269.35C180.504 269.35 174.704 275 174.704 283.2C174.704 291.35 180.504 297 189.004 297C197.454 297 203.304 291.35 203.304 283.2ZM195.354 283.2C195.354 287.2 192.704 290 189.004 290C185.254 290 182.654 287.2 182.654 283.2C182.654 279.15 185.254 276.35 189.004 276.35C192.704 276.35 195.354 279.15 195.354 283.2ZM205.446 276.35H208.996V296H216.946V276.35H222.646V270.35H216.946V268.35C216.946 266.25 218.196 264.85 220.146 264.85C220.946 264.85 221.996 264.95 222.846 265.2V258.7C221.296 258.2 219.196 257.85 217.446 257.85C212.346 257.85 208.996 261.65 208.996 267.4V270.35H205.446V276.35ZM224.104 273.45H228.354V290.15C228.354 294.25 230.854 297 234.554 297C235.954 297 237.504 296.75 238.554 296.4V293.65C237.554 293.95 236.254 294.15 235.254 294.15C232.954 294.1 231.454 292.4 231.454 289.9V273.45H238.104V270.85H231.454V265.35H228.354V270.85H224.104V273.45ZM254.96 269.85C247.16 269.85 241.66 275.5 241.66 283.4C241.66 291.45 247.11 297 254.96 297C259.61 297 263.36 294.8 265.36 291.2V296H268.31V283.4C268.31 275.5 262.76 269.85 254.96 269.85ZM254.96 272.7C260.91 272.7 265.21 277.2 265.21 283.4C265.21 289.65 260.91 294.15 254.96 294.15C249.01 294.15 244.76 289.65 244.76 283.4C244.76 277.2 249.01 272.7 254.96 272.7ZM286.991 269.85C279.241 269.85 273.691 275.5 273.691 283.4C273.691 291.15 279.191 296.85 286.841 296.85C291.341 296.85 295.041 294.5 297.141 290.9V296C297.141 301.6 293.041 305.65 287.341 305.65C281.941 305.65 277.741 302.2 277.141 297.5H274.241V299.05C275.441 304.55 280.991 308.5 287.441 308.5C294.891 308.5 300.241 303.35 300.241 296.1V283.4C300.241 275.5 294.691 269.85 286.991 269.85ZM286.991 272.7C292.991 272.7 297.191 277.2 297.191 283.4C297.191 289.65 292.991 293.95 286.991 293.95C281.091 293.95 276.791 289.55 276.791 283.4C276.791 277.2 281.041 272.7 286.991 272.7ZM305.917 294.3C305.917 295.65 306.817 296.6 308.167 296.6C309.517 296.6 310.417 295.65 310.417 294.3C310.417 293 309.517 292.1 308.167 292.1C306.817 292.1 305.917 293 305.917 294.3Z" fill="#313131"/>
<path d="M282.224 23.4827C279.453 17.3833 275.814 11.699 270.774 7.30306C265.776 2.90298 259.111 -0.0382258 251.638 0.00085537C247.824 -0.00282286 244.223 0.800411 241.038 2.18526C235.439 4.62209 231.214 8.66861 227.974 13.0062C223.124 19.5405 220.253 26.9163 218.429 32.7362C217.944 34.3036 217.541 35.7468 217.203 37.0466H203.844H191.897H178.535C177.557 33.2249 175.954 28.0451 173.448 22.6519C171.016 17.4876 167.768 12.0981 163.031 7.69433C160.664 5.50211 157.898 3.56644 154.704 2.1848C151.518 0.799951 147.914 -0.00374242 144.104 0.000395591C136.674 -0.0386856 130.028 2.82114 125.014 7.1472C117.453 13.6738 112.956 22.9664 110.011 32.5771C107.105 42.2265 105.867 52.3223 105.859 60.9436C105.859 74.0892 105.859 125.472 105.859 144.592C105.863 151.91 107.001 161.004 109.821 170.751C114.058 185.332 122.136 201.441 136.337 214.067C150.503 226.708 170.83 235.453 197.869 235.407C215.9 235.414 230.943 231.585 243.168 225.225C261.544 215.689 273.304 200.658 280.319 185.653C287.354 170.587 289.864 155.545 289.883 144.592C289.883 125.471 289.883 74.0887 289.883 60.9432C289.848 49.8197 287.711 35.7197 282.224 23.4827ZM275.543 144.592C275.547 150.416 274.592 158.351 272.148 166.754C268.485 179.395 261.524 193.03 249.888 203.339C238.221 213.636 221.914 221.02 197.869 221.066C181.842 221.059 169.255 217.722 159.186 212.503C144.12 204.673 134.455 192.424 128.406 179.566C124.495 171.263 122.214 162.727 121.092 155.347C126.869 155.347 136.942 155.347 150.782 155.347C173.515 155.347 188.67 133.468 188.67 115.787C188.67 102.188 188.67 66.9456 188.67 51.383H191.898H203.845H229.073L230.042 45.3613C230.054 45.1709 231.602 36.379 235.466 28.3439C237.372 24.3278 239.847 20.5645 242.579 18.1046C243.948 16.8632 245.353 15.9322 246.808 15.311C248.278 14.6903 249.807 14.3446 251.638 14.3409C255.518 14.3795 258.413 15.6136 261.373 18.1318C265.765 21.8643 269.607 28.9761 272 37.0737C274.441 45.1282 275.555 54.0525 275.544 60.9432C275.543 74.0892 275.543 125.472 275.543 144.592Z" fill="url(#paint0_linear_5063_36201)"/>
<path d="M196.675 161.318C186.117 161.318 177.558 167.744 177.558 175.659C177.558 183.578 186.117 189.999 196.675 189.999C207.236 189.999 215.796 183.578 215.796 175.659C215.796 167.744 207.237 161.318 196.675 161.318Z" fill="url(#paint1_linear_5063_36201)"/>
<path d="M233.723 126.667C240.323 126.667 245.673 121.316 245.673 114.716C245.673 108.116 240.323 102.766 233.723 102.766C227.122 102.766 221.772 108.116 221.772 114.716C221.772 121.316 227.122 126.667 233.723 126.667Z" fill="url(#paint2_linear_5063_36201)"/>
<path d="M251.241 32.6631C243.28 32.6631 241.681 49.3935 241.681 49.3935H259.211C259.211 49.3935 259.203 32.6631 251.241 32.6631Z" fill="url(#paint3_linear_5063_36201)"/>
<defs>
<linearGradient id="paint0_linear_5063_36201" x1="118.712" y1="3.75013e-05" x2="285.724" y2="5.46556" gradientUnits="userSpaceOnUse">
<stop stop-color="#54A7DC"/>
<stop offset="1" stop-color="#2A82D2"/>
</linearGradient>
<linearGradient id="paint1_linear_5063_36201" x1="180.229" y1="161.318" x2="214.861" y2="163.251" gradientUnits="userSpaceOnUse">
<stop stop-color="#54A7DC"/>
<stop offset="1" stop-color="#2A82D2"/>
</linearGradient>
<linearGradient id="paint2_linear_5063_36201" x1="223.441" y1="102.766" x2="245.118" y2="103.673" gradientUnits="userSpaceOnUse">
<stop stop-color="#54A7DC"/>
<stop offset="1" stop-color="#2A82D2"/>
</linearGradient>
<linearGradient id="paint3_linear_5063_36201" x1="242.905" y1="32.6631" x2="258.801" y2="33.3603" gradientUnits="userSpaceOnUse">
<stop stop-color="#54A7DC"/>
<stop offset="1" stop-color="#2A82D2"/>
</linearGradient>
</defs>
</svg>
