<svg width="147" height="189" viewBox="0 0 147 189" fill="none" xmlns="http://www.w3.org/2000/svg">
<path d="M140.882 18.8111C138.669 13.9251 135.762 9.37164 131.736 5.85021C127.743 2.32547 122.419 -0.0306213 116.449 0.000685205C113.403 -0.00226129 110.527 0.641179 107.982 1.75053C103.51 3.70259 100.134 6.9441 97.5463 10.4188C93.6723 15.6532 91.3786 21.5617 89.922 26.2238C89.5345 27.4793 89.2121 28.6355 88.9425 29.6767H78.2713H68.728H58.0538C57.2726 26.6153 55.9927 22.4659 53.9907 18.1456C52.0474 14.0087 49.4533 9.69134 45.6689 6.16365C43.7782 4.40754 41.5687 2.85694 39.0176 1.75017C36.4727 0.640811 33.5936 -0.00299791 30.55 0.000316893C24.6148 -0.0309896 19.3059 2.25991 15.3011 5.72536C9.26086 10.9535 5.6689 18.3975 3.3165 26.0963C0.99495 33.8261 0.00624369 41.9135 0 48.8197C0 59.3501 0 100.511 0 115.827C0.00293821 121.689 0.911581 128.975 3.16445 136.782C6.5489 148.462 13.0019 161.367 24.3456 171.481C35.6614 181.607 51.899 188.613 73.4985 188.576C87.9013 188.581 99.9178 185.514 109.684 180.42C124.362 172.78 133.756 160.739 139.36 148.72C144.98 136.651 146.985 124.601 147 115.827C147 100.51 147 59.3497 147 48.8193C146.972 39.9087 145.265 28.6137 140.882 18.8111ZM135.545 115.827C135.548 120.492 134.785 126.849 132.833 133.581C129.907 143.707 124.347 154.629 115.052 162.887C105.732 171.136 92.7052 177.051 73.4985 177.088C60.6953 177.082 50.6407 174.409 42.5978 170.228C30.5629 163.956 22.8424 154.144 18.0105 143.844C14.8864 137.192 13.064 130.354 12.1682 124.443C16.783 124.443 24.8293 124.443 35.8847 124.443C54.0439 124.443 66.1501 106.916 66.1501 92.7526C66.1501 81.8587 66.1501 53.6276 66.1501 41.161H68.7287H78.272H98.4241L99.1987 36.3372C99.2078 36.1847 100.444 29.1419 103.531 22.7053C105.053 19.4881 107.031 16.4734 109.213 14.503C110.307 13.5085 111.429 12.7627 112.591 12.2651C113.766 11.7679 114.987 11.4909 116.45 11.488C119.549 11.5189 121.861 12.5075 124.226 14.5247C127.735 17.5147 130.803 23.2117 132.715 29.6984C134.665 36.1505 135.554 43.2994 135.545 48.8193C135.545 59.3501 135.545 100.511 135.545 115.827Z" fill="url(#paint0_linear_5063_36274)"/>
<path d="M72.7564 129.182C64.5567 129.182 57.9092 134.504 57.9092 141.06C57.9092 147.62 64.5567 152.939 72.7564 152.939C80.9587 152.939 87.6061 147.62 87.6061 141.06C87.6065 134.504 80.959 129.182 72.7564 129.182Z" fill="url(#paint1_linear_5063_36274)"/>
<path d="M102.455 100.97C107.375 100.97 111.364 96.6489 111.364 91.3185C111.364 85.9881 107.375 81.667 102.455 81.667C97.5341 81.667 93.5454 85.9881 93.5454 91.3185C93.5454 96.6489 97.5341 100.97 102.455 100.97Z" fill="url(#paint2_linear_5063_36274)"/>
<path d="M116.492 26.7275C109.748 26.7275 108.394 40.0912 108.394 40.0912H123.243C123.243 40.0912 123.236 26.7275 116.492 26.7275Z" fill="url(#paint3_linear_5063_36274)"/>
<defs>
<linearGradient id="paint0_linear_5063_36274" x1="10.2667" y1="3.00409e-05" x2="143.678" y2="4.35369" gradientUnits="userSpaceOnUse">
<stop stop-color="#54A7DC"/>
<stop offset="1" stop-color="#2A82D2"/>
</linearGradient>
<linearGradient id="paint1_linear_5063_36274" x1="59.9833" y1="129.182" x2="86.8902" y2="130.59" gradientUnits="userSpaceOnUse">
<stop stop-color="#54A7DC"/>
<stop offset="1" stop-color="#2A82D2"/>
</linearGradient>
<linearGradient id="paint2_linear_5063_36274" x1="94.7899" y1="81.667" x2="110.954" y2="82.2916" gradientUnits="userSpaceOnUse">
<stop stop-color="#54A7DC"/>
<stop offset="1" stop-color="#2A82D2"/>
</linearGradient>
<linearGradient id="paint3_linear_5063_36274" x1="109.431" y1="26.7275" x2="122.892" y2="27.3537" gradientUnits="userSpaceOnUse">
<stop stop-color="#54A7DC"/>
<stop offset="1" stop-color="#2A82D2"/>
</linearGradient>
</defs>
</svg>
