<svg width="130" height="185" viewBox="0 0 130 185" fill="none" xmlns="http://www.w3.org/2000/svg">
<path d="M35.1126 143.749V146.368L29.7666 163H23.2326L19.3176 150.229L15.4026 163H8.86858L3.49558 146.368V143.749H7.59958L12.3786 158.545L17.0226 143.749H21.5856L26.2566 158.545L31.0356 143.749H35.1126ZM50.9493 156.088C50.9493 160.489 47.7903 163.54 43.2273 163.54C38.6373 163.54 35.5053 160.489 35.5053 156.088C35.5053 151.66 38.6373 148.609 43.2273 148.609C47.7903 148.609 50.9493 151.66 50.9493 156.088ZM46.6563 156.088C46.6563 153.901 45.2253 152.389 43.2273 152.389C41.2023 152.389 39.7983 153.901 39.7983 156.088C39.7983 158.248 41.2023 159.76 43.2273 159.76C45.2253 159.76 46.6563 158.248 46.6563 156.088ZM68.4044 156.088C68.4044 160.489 65.2454 163.54 60.6824 163.54C56.0924 163.54 52.9604 160.489 52.9604 156.088C52.9604 151.66 56.0924 148.609 60.6824 148.609C65.2454 148.609 68.4044 151.66 68.4044 156.088ZM64.1114 156.088C64.1114 153.901 62.6804 152.389 60.6824 152.389C58.6574 152.389 57.2534 153.901 57.2534 156.088C57.2534 158.248 58.6574 159.76 60.6824 159.76C62.6804 159.76 64.1114 158.248 64.1114 156.088ZM69.561 152.389V149.149H71.478V147.556C71.478 144.451 73.287 142.399 76.041 142.399C76.986 142.399 78.12 142.588 78.957 142.858V146.368C78.498 146.233 77.931 146.179 77.499 146.179C76.446 146.179 75.771 146.935 75.771 148.069V149.149H78.849V152.389H75.771V163H71.478V152.389H69.561ZM79.6364 150.823V149.419H81.9314V146.449H83.6054V149.419H87.1964V150.823H83.6054V159.706C83.6054 161.056 84.4154 161.974 85.6574 162.001C86.1974 162.001 86.8994 161.893 87.4394 161.731V163.216C86.8724 163.405 86.0354 163.54 85.2794 163.54C83.2814 163.54 81.9314 162.055 81.9314 159.841V150.823H79.6364ZM96.2982 148.879C100.51 148.879 103.507 151.93 103.507 156.196V163H101.914V160.408C100.834 162.352 98.8092 163.54 96.2982 163.54C92.0592 163.54 89.1162 160.543 89.1162 156.196C89.1162 151.93 92.0862 148.879 96.2982 148.879ZM96.2982 150.418C93.0852 150.418 90.7902 152.848 90.7902 156.196C90.7902 159.571 93.0852 162.001 96.2982 162.001C99.5112 162.001 101.833 159.571 101.833 156.196C101.833 152.848 99.5112 150.418 96.2982 150.418ZM113.595 148.879C117.753 148.879 120.75 151.93 120.75 156.196V163.054C120.75 166.969 117.861 169.75 113.838 169.75C110.355 169.75 107.358 167.617 106.71 164.647V163.81H108.276C108.6 166.348 110.868 168.211 113.784 168.211C116.862 168.211 119.076 166.024 119.076 163V160.246C117.942 162.19 115.944 163.459 113.514 163.459C109.383 163.459 106.413 160.381 106.413 156.196C106.413 151.93 109.41 148.879 113.595 148.879ZM113.595 150.418C110.382 150.418 108.087 152.848 108.087 156.196C108.087 159.517 110.409 161.893 113.595 161.893C116.835 161.893 119.103 159.571 119.103 156.196C119.103 152.848 116.835 150.418 113.595 150.418ZM123.815 162.082C123.815 161.38 124.301 160.894 125.03 160.894C125.759 160.894 126.245 161.38 126.245 162.082C126.245 162.811 125.759 163.324 125.03 163.324C124.301 163.324 123.815 162.811 123.815 162.082Z" fill="#000832"/>
<path d="M110.88 12.6687C109.389 9.37812 107.431 6.31151 104.72 3.93994C102.031 1.56613 98.4454 -0.0206225 94.425 0.000461465C92.3732 -0.00152291 90.4362 0.431815 88.7226 1.17893C85.7106 2.49358 83.4375 4.67664 81.6944 7.01671C79.0854 10.542 77.5407 14.5211 76.5597 17.6609C76.2988 18.5065 76.0816 19.2851 75.9 19.9863H68.7133H62.2862H55.0975C54.5714 17.9246 53.7094 15.1301 52.3611 12.2205C51.0523 9.43442 49.3053 6.52682 46.7566 4.15103C45.4833 2.96834 43.9952 1.92406 42.2771 1.17868C40.5633 0.431567 38.6243 -0.002019 36.5745 0.000213418C32.5773 -0.0208706 29.0019 1.52198 26.3048 3.85585C22.2369 7.37688 19.8178 12.3901 18.2336 17.5751C16.6701 22.7808 16.0042 28.2274 16 32.8786C16 39.9705 16 67.6909 16 78.0062C16.002 81.9541 16.6139 86.8605 18.1312 92.1186C20.4105 99.9849 24.7564 108.676 32.396 115.487C40.0169 122.307 50.9524 127.025 65.499 127C75.1988 127.004 83.2916 124.938 89.8686 121.507C99.7541 116.362 106.081 108.253 109.855 100.158C113.639 92.0303 114.99 83.9149 115 78.006C115 67.6907 115 39.9702 115 32.8783C114.981 26.8773 113.831 19.2705 110.88 12.6687ZM107.285 78.0062C107.287 81.148 106.774 85.4288 105.459 89.9626C103.489 96.7821 99.7438 104.138 93.4838 109.699C87.2074 115.255 78.4341 119.238 65.499 119.263C56.8764 119.259 50.105 117.459 44.6883 114.643C36.5832 110.419 31.3836 103.811 28.1295 96.8744C26.0256 92.3949 24.7982 87.7897 24.1949 83.8085C27.3029 83.8085 32.7218 83.8085 40.1672 83.8085C52.3969 83.8085 60.55 72.005 60.55 62.4661C60.55 55.1293 60.55 36.1166 60.55 27.7207H62.2867H68.7138H82.2856L82.8073 24.472C82.8134 24.3693 83.6463 19.6262 85.7252 15.2913C86.7503 13.1246 88.082 11.0944 89.5515 9.7673C90.2883 9.09758 91.0437 8.59528 91.8266 8.26017C92.6176 7.92531 93.4401 7.73878 94.4253 7.73679C96.5126 7.75763 98.0697 8.42339 99.6624 9.78194C102.025 11.7956 104.092 15.6324 105.38 20.001C106.693 24.3463 107.292 29.1608 107.286 32.8783C107.285 39.9705 107.285 67.6909 107.285 78.0062Z" fill="url(#paint0_linear_5140_33469)"/>
<path d="M64.9992 87C59.4769 87 55 90.5845 55 95C55 99.4178 59.4769 103 64.9992 103C70.5231 103 75 99.4178 75 95C75.0002 90.5845 70.5234 87 64.9992 87Z" fill="url(#paint1_linear_5140_33469)"/>
<path d="M85 68C88.3137 68 91 65.0899 91 61.5C91 57.9102 88.3137 55 85 55C81.6863 55 79 57.9102 79 61.5C79 65.0899 81.6863 68 85 68Z" fill="url(#paint2_linear_5140_33469)"/>
<path d="M94.4538 18C89.912 18 89 27 89 27H99C99 27 98.9955 18 94.4538 18Z" fill="url(#paint3_linear_5140_33469)"/>
<defs>
<linearGradient id="paint0_linear_5140_33469" x1="22.9143" y1="2.02317e-05" x2="112.763" y2="2.93208" gradientUnits="userSpaceOnUse">
<stop stop-color="#54A7DC"/>
<stop offset="1" stop-color="#2A82D2"/>
</linearGradient>
<linearGradient id="paint1_linear_5140_33469" x1="56.3968" y1="87" x2="74.5178" y2="87.9482" gradientUnits="userSpaceOnUse">
<stop stop-color="#54A7DC"/>
<stop offset="1" stop-color="#2A82D2"/>
</linearGradient>
<linearGradient id="paint2_linear_5140_33469" x1="79.8381" y1="55" x2="90.7242" y2="55.4207" gradientUnits="userSpaceOnUse">
<stop stop-color="#54A7DC"/>
<stop offset="1" stop-color="#2A82D2"/>
</linearGradient>
<linearGradient id="paint3_linear_5140_33469" x1="89.6984" y1="18" x2="98.7641" y2="18.4217" gradientUnits="userSpaceOnUse">
<stop stop-color="#54A7DC"/>
<stop offset="1" stop-color="#2A82D2"/>
</linearGradient>
</defs>
</svg>
